# xmcd
#
# Track frame offsets:
#	150
#	17885
#	39295
#	56825
#	70545
#	89187
#	102505
#	120617
#	135557
#	154750
#	175262
#	190497
#
# Disc length: 2668 seconds
#
# Revision: 1
# Processed by: cddbd v1.5.2PL0 Copyright (c) Steve Scherf et al.
# Submitted via: audiograbber 1.83.01
#
DISCID=a70a6a0c
DTITLE=Shelley Buffitt - My First Love Shelley Buffitt
DYEAR=1997
DGENRE=Country
TTITLE0=Darling Here I Am
TTITLE1=Beaubadeen
TTITLE2=The Word Is Love
TTITLE3=Scotties Song
TTITLE4=Lying In Your Arms
TTITLE5=I´m Happy
TTITLE6=R and R
TTITLE7=Belle Of The Bar Room
TTITLE8=Lost Little Girl
TTITLE9=P. M. S. Blues
TTITLE10=You Let Me Love You
TTITLE11=Extra Prayer
EXTD=
EXTT0=
EXTT1=
EXTT2=
EXTT3=
EXTT4=
EXTT5=
EXTT6=
EXTT7=
EXTT8=
EXTT9=
EXTT10=
EXTT11=
PLAYORDER=
